<?xml version="1.0" encoding="UTF-8" standalone="no"?>
<svg
   xmlns:dc="http://purl.org/dc/elements/1.1/"
   xmlns:cc="http://creativecommons.org/ns#"
   xmlns:rdf="http://www.w3.org/1999/02/22-rdf-syntax-ns#"
   xmlns:svg="http://www.w3.org/2000/svg"
   xmlns="http://www.w3.org/2000/svg"
   viewBox="0 0 1000 666.22668"
   height="666.22668"
   width="1000"
   xml:space="preserve"
   id="svg2"
   version="1.1"><metadata
     id="metadata8"><rdf:RDF><cc:Work
         rdf:about=""><dc:format>image/svg+xml</dc:format><dc:type
           rdf:resource="http://purl.org/dc/dcmitype/StillImage" /></cc:Work></rdf:RDF></metadata><defs
     id="defs6"><clipPath
       id="clipPath100"
       clipPathUnits="userSpaceOnUse"><path
         id="path98"
         d="m 2639.58,2299.37 c 0,0 -41.51,270.25 202.35,257.74 223.72,-11.48 226.67,-406.47 21.13,-410.94 -205.55,-4.46 -223.48,153.2 -223.48,153.2 z" /></clipPath><clipPath
       id="clipPath122"
       clipPathUnits="userSpaceOnUse"><path
         id="path120"
         d="m 3321.23,2284.45 c 0,0 -37.36,270.03 188.19,258.46 206.9,-10.61 208.11,-405.51 17.95,-410.77 -190.16,-5.26 -206.14,152.31 -206.14,152.31 z" /></clipPath></defs><g
     transform="matrix(1.3333333,0,0,-1.3333333,0,666.22667)"
     id="g10"><g
       transform="scale(0.1)"
       id="g12"><path
         id="path14"
         style="fill:#e0e0fc;fill-opacity:1;fill-rule:nonzero;stroke:none"
         d="M 7500,0 H 0 V 4996.68 H 7500 V 0" /><path
         id="path16"
         style="fill:none;stroke:#ffffff;stroke-width:15;stroke-linecap:butt;stroke-linejoin:miter;stroke-miterlimit:10;stroke-dasharray:none;stroke-opacity:1"
         d="M 5514.04,3380.57 H 6935.69" /><path
         id="path18"
         style="fill:none;stroke:#ffffff;stroke-width:15;stroke-linecap:butt;stroke-linejoin:miter;stroke-miterlimit:10;stroke-dasharray:none;stroke-opacity:1"
         d="M 6880.18,2421.96 H 5569.55 c -30.65,0 -55.51,24.85 -55.51,55.51 v 1056.27 c 0,30.66 24.86,55.52 55.51,55.52 h 1310.63 c 30.66,0 55.51,-24.86 55.51,-55.52 V 2477.47 c 0,-30.66 -24.85,-55.51 -55.51,-55.51 z" /><path
         id="path20"
         style="fill:#e8a068;fill-opacity:1;fill-rule:nonzero;stroke:none"
         d="m 7026.55,3207.33 h -556.54 c -23.8,0 -43.1,19.29 -43.1,43.09 v 585.88 c 0,23.8 19.3,43.09 43.1,43.09 h 556.54 c 23.81,0 43.1,-19.29 43.1,-43.09 v -585.88 c 0,-23.8 -19.29,-43.09 -43.1,-43.09" /><path
         id="path22"
         style="fill:#fafafa;fill-opacity:1;fill-rule:nonzero;stroke:none"
         d="m 6793.32,3432.39 h -176 c -15.73,0 -28.49,12.76 -28.49,28.5 v 151.89 c 0,15.74 12.76,28.5 28.49,28.5 h 176 c 15.74,0 28.51,-12.76 28.51,-28.5 v -151.89 c 0,-15.74 -12.77,-28.5 -28.51,-28.5" /><path
         id="path24"
         style="fill:#fafafa;fill-opacity:1;fill-rule:nonzero;stroke:none"
         d="m 6843.16,3573.24 v -63.33 c 0,-3.43 1.89,-6.58 4.91,-8.2 l 74.57,-40.12 c 6.2,-3.34 13.72,1.16 13.72,8.2 v 133.1 c 0,6.58 -6.64,11.08 -12.76,8.65 l -74.57,-29.66 c -3.54,-1.4 -5.87,-4.83 -5.87,-8.64" /><path
         id="path26"
         style="fill:#ffffff;fill-opacity:1;fill-rule:nonzero;stroke:none"
         d="M 817.539,4197.78 H 682.504 c -6.883,0 -12.469,5.58 -12.469,12.47 v 135.03 c 0,6.89 5.586,12.47 12.469,12.47 h 135.035 c 6.891,0 12.473,-5.58 12.473,-12.47 v -135.03 c 0,-6.89 -5.582,-12.47 -12.473,-12.47" /><path
         id="path28"
         style="fill:#ffffff;fill-opacity:1;fill-rule:nonzero;stroke:none"
         d="m 5638.38,3876.39 h -111.55 c -5.7,0 -10.31,4.61 -10.31,10.31 v 111.55 c 0,5.69 4.61,10.3 10.31,10.3 h 111.55 c 5.69,0 10.3,-4.61 10.3,-10.3 V 3886.7 c 0,-5.7 -4.61,-10.31 -10.3,-10.31" /><path
         id="path30"
         style="fill:none;stroke:#8580f6;stroke-width:30;stroke-linecap:round;stroke-linejoin:round;stroke-miterlimit:10;stroke-dasharray:none;stroke-opacity:1"
         d="M 1293.46,4144.13 V 3807.57" /><path
         id="path32"
         style="fill:none;stroke:#8580f6;stroke-width:30;stroke-linecap:round;stroke-linejoin:round;stroke-miterlimit:10;stroke-dasharray:none;stroke-opacity:1"
         d="m 5705.43,4274.13 h 552.33" /><path
         id="path34"
         style="fill:none;stroke:#ffffff;stroke-width:15;stroke-linecap:butt;stroke-linejoin:miter;stroke-miterlimit:10;stroke-dasharray:none;stroke-opacity:1"
         d="M 328.137,3308.19 H 1539.79" /><path
         id="path36"
         style="fill:none;stroke:#ffffff;stroke-width:15;stroke-linecap:butt;stroke-linejoin:miter;stroke-miterlimit:10;stroke-dasharray:none;stroke-opacity:1"
         d="M 1484.28,1999.57 H 383.652 c -30.66,0 -55.515,24.86 -55.515,55.52 v 1406.27 c 0,30.66 24.855,55.51 55.515,55.51 H 1484.28 c 30.66,0 55.51,-24.85 55.51,-55.51 V 2055.09 c 0,-30.66 -24.85,-55.52 -55.51,-55.52 z" /><path
         id="path38"
         style="fill:#8580f6;fill-opacity:1;fill-rule:nonzero;stroke:none"
         d="M 1266.62,2266.35 H 601.313 c -28.454,0 -51.516,23.07 -51.516,51.51 v 700.38 c 0,28.45 23.062,51.51 51.516,51.51 h 665.307 c 28.45,0 51.51,-23.06 51.51,-51.51 v -700.38 c 0,-28.44 -23.06,-51.51 -51.51,-51.51" /><path
         id="path40"
         style="fill:none;stroke:#ffffff;stroke-width:10;stroke-linecap:round;stroke-linejoin:round;stroke-miterlimit:10;stroke-dasharray:none;stroke-opacity:1"
         d="M 1013.86,2497.75 H 733.945 v 279.92 h 279.915 z" /><path
         id="path42"
         style="fill:none;stroke:#ffffff;stroke-width:10;stroke-linecap:round;stroke-linejoin:round;stroke-miterlimit:10;stroke-dasharray:none;stroke-opacity:1"
         d="m 1013.86,2777.67 124.83,66 H 871.586 l -137.641,-66" /><path
         id="path44"
         style="fill:none;stroke:#ffffff;stroke-width:10;stroke-linecap:round;stroke-linejoin:round;stroke-miterlimit:10;stroke-dasharray:none;stroke-opacity:1"
         d="m 1138.69,2843.67 v -260.23 l -124.83,-85.69" /><path
         id="path46"
         style="fill:none;stroke:#ffffff;stroke-width:10;stroke-linecap:round;stroke-linejoin:round;stroke-miterlimit:4;stroke-dasharray:none;stroke-opacity:1"
         d="m 1138.69,2583.44 h -15" /><path
         id="path48"
         style="fill:none;stroke:#ffffff;stroke-width:10;stroke-linecap:round;stroke-linejoin:round;stroke-miterlimit:4;stroke-dasharray:30.6839, 30.6839;stroke-dashoffset:0;stroke-opacity:1"
         d="M 1093,2583.44 H 873.902 L 759.82,2513.6" /><path
         id="path50"
         style="fill:none;stroke:#ffffff;stroke-width:10;stroke-linecap:round;stroke-linejoin:round;stroke-miterlimit:4;stroke-dasharray:none;stroke-opacity:1"
         d="m 746.738,2505.58 -12.793,-7.83" /><path
         id="path52"
         style="fill:none;stroke:#ffffff;stroke-width:10;stroke-linecap:round;stroke-linejoin:round;stroke-miterlimit:10;stroke-dasharray:30, 30;stroke-dashoffset:0;stroke-opacity:1"
         d="M 871.586,2843.67 V 2583.44" /><path
         id="path54"
         style="fill:none;stroke:#ffffff;stroke-width:15;stroke-linecap:butt;stroke-linejoin:miter;stroke-miterlimit:10;stroke-dasharray:none;stroke-opacity:1"
         d="M 1962.83,4269.19 H 5214.41" /><path
         id="path56"
         style="fill:none;stroke:#ffffff;stroke-width:15;stroke-linecap:butt;stroke-linejoin:miter;stroke-miterlimit:10;stroke-dasharray:none;stroke-opacity:1"
         d="M 5173.36,2472.67 H 2003.88 c -22.67,0 -41.05,18.38 -41.05,41.05 v 1920.49 c 0,22.68 18.38,41.06 41.05,41.06 h 3169.48 c 22.66,0 41.05,-18.38 41.05,-41.06 V 2513.72 c 0,-22.67 -18.39,-41.05 -41.05,-41.05 z" /><path
         id="path58"
         style="fill:#8580f6;fill-opacity:1;fill-rule:nonzero;stroke:none"
         d="m 2164.02,4370.13 c 0,-15.88 -12.88,-28.76 -28.76,-28.76 -15.88,0 -28.75,12.88 -28.75,28.76 0,15.88 12.87,28.75 28.75,28.75 15.88,0 28.76,-12.87 28.76,-28.75" /><path
         id="path60"
         style="fill:#8580f6;fill-opacity:1;fill-rule:nonzero;stroke:none"
         d="m 2275.77,4370.13 c 0,-15.88 -12.87,-28.76 -28.75,-28.76 -15.88,0 -28.76,12.88 -28.76,28.76 0,15.88 12.88,28.75 28.76,28.75 15.88,0 28.75,-12.87 28.75,-28.75" /><path
         id="path62"
         style="fill:#8580f6;fill-opacity:1;fill-rule:nonzero;stroke:none"
         d="m 2387.53,4370.13 c 0,-15.88 -12.88,-28.76 -28.76,-28.76 -15.88,0 -28.75,12.88 -28.75,28.76 0,15.88 12.87,28.75 28.75,28.75 15.88,0 28.76,-12.87 28.76,-28.75" /><path
         id="path64"
         style="fill:#de5e81;fill-opacity:1;fill-rule:nonzero;stroke:none"
         d="M 4944.47,3501.8 H 3779.31 c -27.16,0 -49.17,22.01 -49.17,49.16 v 434.44 c 0,27.15 22.01,49.16 49.17,49.16 h 1165.16 c 27.15,0 49.16,-22.01 49.16,-49.16 v -434.44 c 0,-27.15 -22.01,-49.16 -49.16,-49.16" /><path
         id="path66"
         style="fill:#ffffff;fill-opacity:1;fill-rule:nonzero;stroke:none"
         d="m 3914.48,3743.65 c 0,38.38 27.86,65.28 66.24,65.28 21.76,0 40.1,-8.57 50.36,-25.43 l -12.96,-8.8 c -8.79,12.96 -22.48,19.07 -37.4,19.07 -28.1,0 -48.64,-20.05 -48.64,-50.12 0,-30.31 20.54,-50.1 48.64,-50.1 14.92,0 28.61,5.87 37.4,18.82 l 12.96,-8.8 c -10.26,-16.62 -28.6,-25.42 -50.36,-25.42 -38.38,0 -66.24,27.13 -66.24,65.5" /><path
         id="path68"
         style="fill:#ffffff;fill-opacity:1;fill-rule:nonzero;stroke:none"
         d="m 4162.58,3757.59 h -45.47 v -44.49 h -15.39 v 44.49 h -45.47 v 14.42 h 45.47 v 44.74 h 15.39 v -44.74 h 45.47 v -14.42" /><path
         id="path70"
         style="fill:#ffffff;fill-opacity:1;fill-rule:nonzero;stroke:none"
         d="m 4283.57,3717.99 v 21.03 h -40.34 c -24.93,0 -33,-9.79 -33,-22.98 0,-14.91 11.98,-24.2 32.51,-24.2 19.56,0 33.98,9.29 40.83,26.15 z m 17.35,41.07 v -79.69 h -16.62 v 20.05 c -7.82,-13.21 -22.97,-21.27 -44.24,-21.27 -29.09,0 -46.94,15.15 -46.94,37.4 0,19.79 12.72,36.42 49.62,36.42 h 40.83 v 7.82 c 0,22 -12.48,33.98 -36.42,33.98 -16.62,0 -32.27,-5.87 -42.79,-15.15 l -7.82,12.95 c 12.96,11 32.02,17.36 52.32,17.36 33.24,0 52.06,-16.63 52.06,-49.87" /><path
         id="path72"
         style="fill:#ffffff;fill-opacity:1;fill-rule:nonzero;stroke:none"
         d="m 4341,3743.9 h 106.33 v -14.42 H 4341 Z m 0,56.46 h 106.33 v -14.41 H 4341 v 14.41" /><path
         id="path74"
         style="fill:#ffffff;fill-opacity:1;fill-rule:nonzero;stroke:none"
         d="m 4557.07,3751.23 h 91.17 c -2.2,25.18 -20.53,42.79 -45.7,42.79 -24.94,0 -43.27,-17.61 -45.47,-42.79 z m 107.56,-12.95 h -107.56 c 1.95,-26.89 22.48,-44.73 50.6,-44.73 15.64,0 29.58,5.62 39.35,16.86 l 9.78,-11.24 c -11.49,-13.69 -29.34,-21.02 -49.62,-21.02 -40.09,0 -67.47,27.37 -67.47,65.5 0,38.14 26.65,65.28 62.83,65.28 36.17,0 62.32,-26.65 62.32,-65.28 0,-1.46 -0.23,-3.41 -0.23,-5.37" /><path
         id="path76"
         style="fill:#ffffff;fill-opacity:1;fill-rule:nonzero;stroke:none"
         d="m 4800.52,3743.65 c 0,30.07 -20.54,50.12 -47.67,50.12 -27.38,0 -47.91,-20.05 -47.91,-50.12 0,-30.06 20.53,-50.1 47.91,-50.1 27.13,0 47.67,20.04 47.67,50.1 z m 17.11,117.09 v -181.37 h -16.62 v 25.42 c -10.52,-17.36 -28.35,-26.64 -49.62,-26.64 -36.67,0 -64.05,26.64 -64.05,65.5 0,38.87 27.38,65.28 64.05,65.28 20.52,0 38.12,-8.81 48.88,-25.43 v 77.24 h 17.36" /><path
         id="path78"
         style="fill:#ecb68f;fill-opacity:1;fill-rule:nonzero;stroke:none"
         d="m 2786.01,1860.38 -59.59,-406.56 349.04,-45.59 v 396.47 l -289.45,55.68" /><path
         id="path80"
         style="fill:#060000;fill-opacity:1;fill-rule:nonzero;stroke:none"
         d="m 2766.1,1724.58 309.36,-183.89 v 264.01 z" /><path
         id="path82"
         style="fill:#060000;fill-opacity:1;fill-rule:nonzero;stroke:none"
         d="m 2048.18,3237.03 c 0,0 -383.33,-476.37 -321.62,-1329.24 l 2257.7,-67.74 c 0,0 245.84,1233.86 -600.76,1674.45 L 2048.18,3237.03" /><path
         id="path84"
         style="fill:#060000;fill-opacity:1;fill-rule:nonzero;stroke:none"
         d="m 3809.32,2790.6 c -21.31,-450.66 -457.69,-796.18 -974.68,-771.73 -516.99,24.44 -918.81,409.6 -897.51,860.26 21.31,450.67 457.69,796.19 974.68,771.74 516.99,-24.45 918.82,-409.6 897.51,-860.27" /><path
         id="path86"
         style="fill:#e1a17a;fill-opacity:1;fill-rule:nonzero;stroke:none"
         d="m 3917.23,2333.24 c -5.09,-107.74 -96.57,-190.95 -204.3,-185.85 -107.73,5.08 -190.94,96.56 -185.85,204.29 5.1,107.74 96.56,190.94 204.3,185.85 107.73,-5.1 190.94,-96.56 185.85,-204.29" /><path
         id="path88"
         style="fill:#ecb68f;fill-opacity:1;fill-rule:nonzero;stroke:none"
         d="m 2893.19,3423.75 c 60.07,6.62 120.71,3.47 180.31,-6.58 193.03,-32.55 604.32,-145.65 706.93,-524.53 135.35,-499.81 -25.21,-1109.49 -592.62,-1200.03 -458.44,-73.14 -1081.16,237.53 -1035.27,860.35 43.04,583.89 349.45,827.67 740.65,870.79" /><path
         id="path90"
         style="fill:none;stroke:#060000;stroke-width:13.54109955;stroke-linecap:round;stroke-linejoin:round;stroke-miterlimit:10;stroke-dasharray:none;stroke-opacity:1"
         d="m 3291.01,2077.79 c 0,0 -11.49,96.26 -113.76,8.24" /><path
         id="path92"
         style="fill:#ffffff;fill-opacity:1;fill-rule:nonzero;stroke:none"
         d="m 2639.58,2299.37 c 0,0 -41.51,270.25 202.35,257.74 223.72,-11.48 226.67,-406.47 21.13,-410.94 -205.55,-4.46 -223.48,153.2 -223.48,153.2" /><g
         id="g94"><g
           clip-path="url(#clipPath100)"
           id="g96"><path
             id="path102"
             style="fill:#060000;fill-opacity:1;fill-rule:nonzero;stroke:none"
             d="m 2695.34,2295.94 c -5.2,-100.71 64.5,-186.17 155.69,-190.88 91.17,-4.71 169.3,73.13 174.5,173.84 5.2,100.72 -64.5,186.18 -155.68,190.89 -91.18,4.7 -169.31,-73.13 -174.51,-173.85" /></g></g><path
         id="path104"
         style="fill:#060000;fill-opacity:1;fill-rule:nonzero;stroke:none"
         d="m 2632.91,2356.76 c -0.55,28.94 4.38,57.29 13.22,84.84 9.33,27.3 23.84,53.48 44.59,74.7 10.24,10.7 22.38,19.59 35.33,26.79 12.93,7.3 26.86,12.76 41.15,16.3 28.6,7.58 58.1,8.19 86.93,5.27 28.91,-3.33 57.99,-12.37 82.69,-29.1 24.75,-16.58 44.18,-40.57 56.07,-67.22 12.19,-26.59 18.45,-55.12 20.99,-83.56 2.09,-28.54 1.37,-57.02 -3.68,-85.15 -0.28,-1.6 -1.82,-2.67 -3.42,-2.38 -1.51,0.27 -2.54,1.64 -2.42,3.13 l 0.01,0.17 c 2.29,27.56 1.76,55.64 -2.19,82.92 -3.73,27.27 -10.75,54.17 -23.06,78.21 -12.26,23.97 -29.62,45.07 -51.9,59.43 -22.17,14.49 -48.38,22.3 -75.16,24.95 -26.94,2.58 -54.5,2.47 -80.36,-4.28 -26.06,-6.06 -49.73,-19.43 -69.09,-37.55 -19.27,-18.38 -33.61,-41.96 -43.29,-67.39 -10.05,-25.29 -15.86,-52.82 -17.81,-80.02 l -0.03,-0.28 c -0.16,-2.37 -2.22,-4.14 -4.58,-3.98 -2.23,0.17 -3.94,2.01 -3.99,4.2" /><path
         id="path106"
         style="fill:#ffffff;fill-opacity:1;fill-rule:nonzero;stroke:none"
         d="m 2791.69,2453.77 c -0.93,-19.78 14.35,-36.58 34.13,-37.52 19.79,-0.93 36.6,14.35 37.53,34.13 0.94,19.8 -14.35,36.6 -34.14,37.53 -19.78,0.94 -36.58,-14.34 -37.52,-34.14" /><path
         id="path108"
         style="fill:none;stroke:#060000;stroke-width:17.10250092;stroke-linecap:round;stroke-linejoin:round;stroke-miterlimit:10;stroke-dasharray:none;stroke-opacity:1"
         d="m 2577.09,2378.93 53.87,-7.04" /><path
         id="path110"
         style="fill:none;stroke:#060000;stroke-width:17.10250092;stroke-linecap:round;stroke-linejoin:round;stroke-miterlimit:10;stroke-dasharray:none;stroke-opacity:1"
         d="m 2574.92,2431.47 63.43,-16.68" /><path
         id="path112"
         style="fill:none;stroke:#060000;stroke-width:17.10250092;stroke-linecap:round;stroke-linejoin:round;stroke-miterlimit:10;stroke-dasharray:none;stroke-opacity:1"
         d="m 2594.28,2480.59 58.34,-29.97" /><path
         id="path114"
         style="fill:#ffffff;fill-opacity:1;fill-rule:nonzero;stroke:none"
         d="m 3321.23,2284.45 c 0,0 -37.36,270.03 188.19,258.46 206.9,-10.61 208.11,-405.51 17.95,-410.77 -190.16,-5.26 -206.14,152.31 -206.14,152.31" /><g
         id="g116"><g
           clip-path="url(#clipPath122)"
           id="g118"><path
             id="path124"
             style="fill:#060000;fill-opacity:1;fill-rule:nonzero;stroke:none"
             d="m 3367.28,2281.52 c -5.06,-98.06 57.39,-180.98 139.49,-185.21 82.1,-4.24 152.75,71.81 157.81,169.86 5.06,98.05 -57.39,180.97 -139.49,185.21 -82.09,4.24 -152.75,-71.82 -157.81,-169.86" /></g></g><path
         id="path126"
         style="fill:#060000;fill-opacity:1;fill-rule:nonzero;stroke:none"
         d="m 3315.72,2357.94 c 0.35,13.79 2.23,27.03 5.16,40.3 2.91,13.21 6.71,26.3 11.98,38.92 10.49,25.15 25.97,48.88 47.01,67.45 21.17,18.37 47.63,30.46 74.86,35.69 6.77,1.65 13.69,2.09 20.54,3.11 6.87,0.29 13.78,1.11 20.63,0.89 13.73,0.19 27.46,-1.04 41.08,-3.54 27.13,-4.98 54.09,-15.94 75.51,-34.44 21.68,-18.2 36.65,-43.06 45.34,-69 8.85,-26.02 12.59,-53.16 13.03,-80.02 0.12,-26.91 -2.08,-53.61 -8.06,-79.83 -0.36,-1.59 -1.95,-2.58 -3.54,-2.22 -1.49,0.34 -2.46,1.75 -2.27,3.25 l 0.02,0.16 c 3.38,25.82 4.34,52.24 2.41,78.15 -1.89,25.9 -6.3,51.66 -15.59,75.4 -9.26,23.64 -23.22,45.25 -42.35,61.02 -19.04,15.9 -42.9,25.25 -67.7,29.42 -12.42,2.14 -25.17,2.83 -37.88,2.92 -6.36,0.29 -12.65,-0.44 -18.98,-0.61 -6.22,-0.89 -12.57,-1.19 -18.68,-2.65 -24.72,-4.44 -47.92,-15.09 -67.15,-30.93 -19.35,-15.76 -34.45,-36.79 -45.21,-59.96 -11.03,-23.03 -18.16,-48.52 -21.58,-73.89 l -0.03,-0.27 c -0.32,-2.35 -2.48,-4.01 -4.83,-3.68 -2.19,0.29 -3.77,2.2 -3.72,4.36" /><path
         id="path128"
         style="fill:#ffffff;fill-opacity:1;fill-rule:nonzero;stroke:none"
         d="m 3437.79,2426.41 c -0.94,-19.8 14.34,-36.59 34.13,-37.53 19.79,-0.94 36.59,14.35 37.53,34.14 0.94,19.79 -14.35,36.58 -34.14,37.52 -19.79,0.94 -36.58,-14.35 -37.52,-34.13" /><path
         id="path130"
         style="fill:none;stroke:#060000;stroke-width:15.54850006;stroke-linecap:round;stroke-linejoin:round;stroke-miterlimit:10;stroke-dasharray:none;stroke-opacity:1"
         d="m 3716.18,2325.06 -44.91,-2.36" /><path
         id="path132"
         style="fill:none;stroke:#060000;stroke-width:15.54850006;stroke-linecap:round;stroke-linejoin:round;stroke-miterlimit:10;stroke-dasharray:none;stroke-opacity:1"
         d="m 3722.49,2377.21 -53.6,-11.15" /><path
         id="path134"
         style="fill:none;stroke:#060000;stroke-width:15.54850006;stroke-linecap:round;stroke-linejoin:round;stroke-miterlimit:10;stroke-dasharray:none;stroke-opacity:1"
         d="m 3710.81,2427.8 -50.57,-24.83" /><path
         id="path136"
         style="fill:none;stroke:#060000;stroke-width:13.54109955;stroke-linecap:round;stroke-linejoin:round;stroke-miterlimit:10;stroke-dasharray:none;stroke-opacity:1"
         d="m 2970.21,1999.59 c 0,0 81.85,-69.56 215.88,-63.67 133.2,5.85 174.06,68.23 174.06,68.23" /><path
         id="path138"
         style="fill:#060000;fill-opacity:1;fill-rule:nonzero;stroke:none"
         d="m 2940.94,2747.79 -288.99,-42.44 c -39.26,-5.77 -75.77,21.39 -81.54,60.66 v 0 c -5.76,39.27 21.4,75.77 60.66,81.54 l 288.98,42.44 c 39.27,5.76 75.78,-21.39 81.55,-60.66 v 0 c 5.76,-39.27 -21.4,-75.77 -60.66,-81.54" /><path
         id="path140"
         style="fill:#060000;fill-opacity:1;fill-rule:nonzero;stroke:none"
         d="m 3416.41,2729.64 227.01,-55.63 c 34.27,-8.4 68.85,12.57 77.25,46.84 l 2.13,8.71 c 8.4,34.27 -12.57,68.85 -46.84,77.24 l -227.01,55.63 c -34.27,8.4 -68.85,-12.57 -77.25,-46.83 l -2.13,-8.71 c -8.4,-34.27 12.57,-68.86 46.84,-77.25" /><path
         id="path142"
         style="fill:#060000;fill-opacity:1;fill-rule:nonzero;stroke:none"
         d="m 3298.51,3411.83 c 0,0 -243.2,-241.21 -678.29,-399.3 -353.99,-128.62 -400.57,-676.93 -400.57,-676.93 l -245.74,403.18 437,604.57 c 0,0 448.67,244.37 768.91,113.03 l 118.69,-44.55" /><path
         id="path144"
         style="fill:#ecb68f;fill-opacity:1;fill-rule:nonzero;stroke:none"
         d="m 2252.66,2316.24 c -5.1,-107.73 -96.56,-190.94 -204.3,-185.85 -107.74,5.1 -190.94,96.57 -185.85,204.3 5.1,107.73 96.56,190.94 204.3,185.85 107.74,-5.1 190.94,-96.56 185.85,-204.3" /><path
         id="path146"
         style="fill:none;stroke:#060000;stroke-width:13.54109955;stroke-linecap:round;stroke-linejoin:round;stroke-miterlimit:10;stroke-dasharray:none;stroke-opacity:1"
         d="m 1982.89,2378.68 c 0,0 129.27,10.51 165.6,-101.62" /><path
         id="path148"
         style="fill:#060000;fill-opacity:1;fill-rule:nonzero;stroke:none"
         d="m 3179.82,3456.38 c 0,0 -33.41,-60.18 301.62,-256.03 217.46,-127.13 327.88,-409.75 327.88,-409.75 0,0 100.63,276.85 -308.19,576.11 l -321.31,89.67" /><path
         id="path150"
         style="fill:#e7a168;fill-opacity:1;fill-rule:nonzero;stroke:none"
         d="m 2217.88,2933.48 c 0,0 338.65,546.8 961.94,522.9 0,0 262.31,21.58 595.2,-291.04 0,0 -172.63,395.73 -681.42,423.09 -508.8,27.36 -810.39,-274.42 -875.72,-654.95" /><path
         id="path152"
         style="fill:#63acf7;fill-opacity:1;fill-rule:nonzero;stroke:none"
         d="m 2638.35,1527.99 -266.84,-13.75 -118.63,-850.549 1158.12,-5.949 -96.43,830.348 -137.32,14.98 -538.9,24.92" /><path
         id="path154"
         style="fill:#ecb68f;fill-opacity:1;fill-rule:nonzero;stroke:none"
         d="m 2638.35,1527.99 h 234.88 l 304.02,-24.92 c 0,0 7.79,-199.81 -207.04,-215.2 -214.83,-15.39 -316.5,95.43 -331.86,240.12" /><path
         id="path156"
         style="fill:#ecb68f;fill-opacity:1;fill-rule:nonzero;stroke:none"
         d="m 3903.17,694.16 -418.42,192.18 64.11,365.21 404.38,-178.67 -50.07,-378.72" /><path
         id="path158"
         style="fill:#63acf7;fill-opacity:1;fill-rule:nonzero;stroke:none"
         d="m 3314.57,1488.09 c 0,0 159.05,-31.1 375.95,-208.94 l -157.33,-445.841 -303.31,82.41 84.69,572.371" /><path
         id="path160"
         style="fill:#ecb68f;fill-opacity:1;fill-rule:nonzero;stroke:none"
         d="m 3466.93,1682.09 c 0,0 198.53,-625.56 374.54,-930.238 34.46,-59.633 104.98,-88.602 173.25,-79.532 v 0 c 130.94,17.371 198.32,166.02 125.07,275.95 l -447.81,672.07 -225.05,61.75" /><path
         id="path162"
         style="fill:none;stroke:#d38f6a;stroke-width:10;stroke-linecap:round;stroke-linejoin:round;stroke-miterlimit:10;stroke-dasharray:none;stroke-opacity:1"
         d="M 3647.18,1160.85 3751.33,929.422" /><path
         id="path164"
         style="fill:#ecb68f;fill-opacity:1;fill-rule:nonzero;stroke:none"
         d="m 3526.92,1535.84 c 0,0 -165.26,291.99 -1.23,357.59 l 55.76,32.8 c 0,0 -33.36,66.08 22.97,98.42 0,0 52.48,29.52 78.73,16.4 0,0 36.99,56.17 104.73,20.81 0,0 29.91,21.38 70.99,14.59 22.09,-3.65 39.8,-20.33 47.3,-41.43 l 16.45,-46.25 c 7.48,-21.01 0.71,-44.46 -16.81,-58.27 l -248.17,-216.15 51.64,-119.96 -182.36,-58.55" /><path
         id="path166"
         style="fill:none;stroke:#d38f6a;stroke-width:10;stroke-linecap:round;stroke-linejoin:round;stroke-miterlimit:10;stroke-dasharray:none;stroke-opacity:1"
         d="m 3453.65,1787.37 c 0,0 -0.54,106.25 178.26,156.09" /><path
         id="path168"
         style="fill:none;stroke:#d38f6a;stroke-width:10;stroke-linecap:round;stroke-linejoin:round;stroke-miterlimit:10;stroke-dasharray:none;stroke-opacity:1"
         d="m 3710.81,2065.07 c 0,0 -20.51,-3.1 -27.66,-24.02 0,0 -23.78,20.7 -78.73,-16.4 -54.95,-37.1 -22.97,-98.42 -22.97,-98.42" /><path
         id="path170"
         style="fill:none;stroke:#d38f6a;stroke-width:10;stroke-linecap:round;stroke-linejoin:round;stroke-miterlimit:10;stroke-dasharray:none;stroke-opacity:1"
         d="m 3683.15,2041.05 c 0,0 61.61,-57.85 39.34,-114.82" /><path
         id="path172"
         style="fill:none;stroke:#d38f6a;stroke-width:10;stroke-linecap:round;stroke-linejoin:round;stroke-miterlimit:10;stroke-dasharray:none;stroke-opacity:1"
         d="m 3790.53,2061.57 c 0,0 61.61,-57.86 39.34,-114.82" /><path
         id="path174"
         style="fill:#ffffff;fill-opacity:1;fill-rule:nonzero;stroke:none"
         d="M 4412.99,774.699 H 2845.59 V 694.16 h 1567.4 v 80.539" /><path
         id="path176"
         style="fill:#ecb68f;fill-opacity:1;fill-rule:nonzero;stroke:none"
         d="M 2060.47,1251.55 1871.94,947.512 c -74.88,-120.742 11.96,-276.77 154.04,-276.77 v 0 c 65.17,0 125.33,34.988 157.56,91.637 l 187.98,330.481 -311.05,158.69" /><path
         id="path178"
         style="fill:#63acf7;fill-opacity:1;fill-rule:nonzero;stroke:none"
         d="m 2371.51,1514.24 c 0,0 -229.47,-0.51 -465.76,-331.85 l 465.76,-263.628 c 0,0 229.92,293.688 222.77,332.788 -7.15,39.09 -222.77,262.69 -222.77,262.69" /><path
         id="path180"
         style="fill:#e7a168;fill-opacity:1;fill-rule:nonzero;stroke:none"
         d="m 2366.32,1187.14 78.43,105.89 600.6,-444.788 -78.45,-105.902 -600.58,444.8" /><path
         id="path182"
         style="fill:#060000;fill-opacity:1;fill-rule:nonzero;stroke:none"
         d="m 2396.03,1227.25 19.01,25.66 600.59,-444.781 -19.01,-25.68 -600.59,444.801" /><path
         id="path184"
         style="fill:#ffffff;fill-opacity:1;fill-rule:nonzero;stroke:none"
         d="M 3134.36,700.32 3044.21,849.082 2965.78,743.18 Z" /><path
         id="path186"
         style="fill:#060000;fill-opacity:1;fill-rule:nonzero;stroke:none"
         d="m 3134.36,700.32 -32.37,53.399 -28.16,-38.008 z" /><path
         id="path188"
         style="fill:#de6475;fill-opacity:1;fill-rule:nonzero;stroke:none"
         d="m 2352.31,1197.5 c -30.33,22.46 -37.35,64.38 -15.7,93.63 21.66,29.24 63.8,34.73 94.12,12.27" /><path
         id="path190"
         style="fill:#ffffff;fill-opacity:1;fill-rule:nonzero;stroke:none"
         d="m 2342.87,1198.24 84.41,113.98 58.21,-43.12 -84.4,-113.96 -58.22,43.1" /><path
         id="path192"
         style="fill:#ecb68f;fill-opacity:1;fill-rule:nonzero;stroke:none"
         d="m 2727.07,804.301 c 0,0 160,167.398 316.16,114.461 156.16,-52.942 200.65,-224.602 200.65,-224.602 l -477.78,0.262 -39.03,109.879" /><path
         id="path194"
         style="fill:#ecb68f;fill-opacity:1;fill-rule:nonzero;stroke:none"
         d="m 2885.83,851.781 -866.41,155.909 c -68.72,4.38 -130.64,-22.241 -158.97,-85.01 v 0 c -54.32,-120.41 36.41,-256.078 168.44,-251.848 l 807.19,25.82 49.75,155.129" /><path
         id="path196"
         style="fill:none;stroke:#d38f6a;stroke-width:10;stroke-linecap:round;stroke-linejoin:round;stroke-miterlimit:10;stroke-dasharray:none;stroke-opacity:1"
         d="m 2293.97,958.281 -239.64,49.529" /><path
         id="path198"
         style="fill:#100c57;fill-opacity:1;fill-rule:nonzero;stroke:none"
         d="M 6554.03,1236.59 H 4305.3 c -64.13,0 -116.12,52 -116.12,116.13 v 1532.56 c 0,64.14 51.99,116.12 116.12,116.12 h 2248.73 c 64.13,0 116.13,-51.98 116.13,-116.12 V 1352.72 c 0,-64.13 -52,-116.13 -116.13,-116.13" /><path
         id="path200"
         style="fill:#8580f6;fill-opacity:1;fill-rule:nonzero;stroke:none"
         d="M 6638.41,1236.59 H 4389.69 c -64.14,0 -116.13,52 -116.13,116.13 v 1532.56 c 0,64.14 51.99,116.12 116.13,116.12 h 2248.72 c 64.13,0 116.12,-51.98 116.12,-116.12 V 1352.72 c 0,-64.13 -51.99,-116.13 -116.12,-116.13" /><path
         id="path202"
         style="fill:#100c57;fill-opacity:1;fill-rule:nonzero;stroke:none"
         d="m 5907.91,1959.02 h -751.35 c -33.22,0 -60.15,26.92 -60.15,60.14 v 0 c 0,33.23 26.93,60.16 60.15,60.16 h 751.35 c 33.22,0 60.16,-26.93 60.16,-60.16 v 0 c 0,-33.22 -26.94,-60.14 -60.16,-60.14" /><path
         id="path204"
         style="fill:#9b9bf5;fill-opacity:1;fill-rule:nonzero;stroke:none"
         d="m 5862.01,693.641 h -594.62 l 167.09,67.211 70.98,32.039 c 53.51,0 2.27,26.75 35.32,66.101 33.05,39.367 1.9,57.688 -10.75,106.309 L 5311.68,2023.55 h 515.76 L 6100.1,977.148 c 17.94,-68.789 1.37,-140.199 -45.38,-195.906 -46.76,-55.66 -117,-87.601 -192.71,-87.601" /><path
         id="path206"
         style="fill:#100c57;fill-opacity:1;fill-rule:nonzero;stroke:none"
         d="m 5339.34,693.641 h -384.68 c -19.85,0 -35.93,15.031 -35.93,33.601 v 0 c 0,18.559 16.08,33.61 35.93,33.61 l 383.75,-0.012 c 47.03,0 94.11,14.422 127.83,45.082 45.22,41.129 62.84,99.43 48.3,155.297 L 5258.9,1942.33 c -9.4,36.06 14.23,72.42 52.78,81.22 v 0 L 5584.34,977.148 c 21.2,-81.308 -5.8,-166.277 -73.88,-224.648 -46.21,-39.621 -108.44,-58.859 -171.12,-58.859" /><path
         id="path208"
         style="fill:#bdbdec;fill-opacity:1;fill-rule:nonzero;stroke:none"
         d="M 7185.84,544.781 H 355.699 V 695.082 H 7185.84 V 544.781" /><path
         id="path210"
         style="fill:#d1824f;fill-opacity:1;fill-rule:nonzero;stroke:none"
         d="M 1163.55,694.219 H 805.059 c -62.168,0 -112.563,50.402 -112.563,112.57 v 0 c 0,62.172 50.395,112.563 112.563,112.563 H 1163.55 V 694.219" /><path
         id="path212"
         style="fill:#fdfdfd;fill-opacity:1;fill-rule:nonzero;stroke:none"
         d="M 1646.65,704.102 H 901.547 c -53.055,0 -96.067,43.019 -96.067,96.078 v 0 c 0,53.062 43.012,96.07 96.067,96.07 H 1646.65 V 704.102" /><path
         id="path214"
         style="fill:#e79e68;fill-opacity:1;fill-rule:nonzero;stroke:none"
         d="M 1716.96,694.219 H 900.375 c -62.074,0 -112.566,50.5 -112.566,112.57 0,62.07 50.492,112.563 112.566,112.563 H 1728.39 V 881.781 H 900.375 c -41.352,0 -74.992,-33.64 -74.992,-74.992 0,-41.359 33.64,-75 74.992,-75 h 816.585 v -37.57" /><path
         id="path216"
         style="fill:#c23c67;fill-opacity:1;fill-rule:nonzero;stroke:none"
         d="M 1163.55,1140.96 H 805.059 c -62.168,0 -112.563,50.4 -112.563,112.57 v 0 c 0,62.17 50.395,112.57 112.563,112.57 h 358.491 v -225.14" /><path
         id="path218"
         style="fill:#fdfdfd;fill-opacity:1;fill-rule:nonzero;stroke:none"
         d="M 1646.65,1150.85 H 901.547 c -53.055,0 -96.067,43.01 -96.067,96.07 v 0 c 0,53.06 43.012,96.07 96.067,96.07 h 745.103 v -192.14" /><path
         id="path220"
         style="fill:#de5e81;fill-opacity:1;fill-rule:nonzero;stroke:none"
         d="M 1716.96,1140.96 H 900.375 c -62.074,0 -112.566,50.5 -112.566,112.57 0,62.07 50.492,112.57 112.566,112.57 h 828.015 v -37.58 H 900.375 c -41.352,0 -74.992,-33.63 -74.992,-74.99 0,-41.35 33.64,-74.99 74.992,-74.99 h 816.585 v -37.58" /><path
         id="path222"
         style="fill:#5959da;fill-opacity:1;fill-rule:nonzero;stroke:none"
         d="m 1117.13,916.789 h 358.5 c 62.17,0 112.57,50.402 112.57,112.571 v 0 c 0,62.17 -50.4,112.57 -112.57,112.57 h -358.5 V 916.789" /><path
         id="path224"
         style="fill:#fdfdfd;fill-opacity:1;fill-rule:nonzero;stroke:none"
         d="m 634.039,926.68 h 745.101 c 53.06,0 96.07,43.011 96.07,96.07 v 0 c 0,53.06 -43.01,96.07 -96.07,96.07 H 634.039 V 926.68" /><path
         id="path226"
         style="fill:#8580f6;fill-opacity:1;fill-rule:nonzero;stroke:none"
         d="m 563.73,916.789 h 816.59 c 62.07,0 112.56,50.5 112.56,112.571 0,62.07 -50.49,112.57 -112.56,112.57 H 552.297 v -37.58 h 828.023 c 41.35,0 74.99,-33.63 74.99,-74.99 0,-41.348 -33.64,-74.989 -74.99,-74.989 H 563.73 v -37.582" /><path
         id="path228"
         style="fill:#d1824f;fill-opacity:1;fill-rule:nonzero;stroke:none"
         d="m 6305.32,694.219 h -358.49 c -62.17,0 -112.57,50.402 -112.57,112.57 v 0 c 0,62.172 50.4,112.563 112.57,112.563 h 358.49 V 694.219" /><path
         id="path230"
         style="fill:#fdfdfd;fill-opacity:1;fill-rule:nonzero;stroke:none"
         d="m 6788.42,704.102 h -745.11 c -53.06,0 -96.06,43.019 -96.06,96.078 v 0 c 0,53.062 43,96.07 96.06,96.07 h 745.11 V 704.102" /><path
         id="path232"
         style="fill:#e79e68;fill-opacity:1;fill-rule:nonzero;stroke:none"
         d="m 6858.72,694.219 h -816.58 c -62.07,0 -112.57,50.5 -112.57,112.57 0,62.07 50.5,112.563 112.57,112.563 h 828.02 v -37.571 h -828.02 c -41.35,0 -74.99,-33.64 -74.99,-74.992 0,-41.359 33.64,-75 74.99,-75 h 816.58 v -37.57" /><path
         id="path234"
         style="fill:#c23c67;fill-opacity:1;fill-rule:nonzero;stroke:none"
         d="m 6147.46,916.789 h -358.5 c -62.16,0 -112.55,50.402 -112.55,112.571 v 0 c 0,62.17 50.39,112.57 112.55,112.57 h 358.5 V 916.789" /><path
         id="path236"
         style="fill:#fdfdfd;fill-opacity:1;fill-rule:nonzero;stroke:none"
         d="m 6630.56,926.68 h -745.1 c -53.06,0 -96.08,43.011 -96.08,96.07 v 0 c 0,53.06 43.02,96.07 96.08,96.07 h 745.1 V 926.68" /><path
         id="path238"
         style="fill:#de5e81;fill-opacity:1;fill-rule:nonzero;stroke:none"
         d="m 6700.87,916.789 h -816.59 c -62.07,0 -112.56,50.5 -112.56,112.571 0,62.07 50.49,112.57 112.56,112.57 h 828.02 v -37.58 h -828.02 c -41.35,0 -74.99,-33.63 -74.99,-74.99 0,-41.348 33.64,-74.989 74.99,-74.989 h 816.59 v -37.582" /></g></g></svg>